<mxfile host="app.diagrams.net" agent="Mozilla/5.0 (Windows NT 10.0; Win64; x64) AppleWebKit/537.36 (KHTML, like Gecko) Chrome/137.0.0.0 Safari/537.36" version="27.1.4">
  <diagram name="Page-1" id="qgwuT4itkb1AjUPC2KtM">
    <mxGraphModel dx="1042" dy="562" grid="1" gridSize="10" guides="1" tooltips="1" connect="1" arrows="1" fold="1" page="1" pageScale="1" pageWidth="850" pageHeight="1100" math="0" shadow="0">
      <root>
        <mxCell id="0" />
        <mxCell id="1" parent="0" />
        <mxCell id="ft27JHIak2lnVU1Jxt6R-5" value="" style="edgeStyle=orthogonalEdgeStyle;rounded=0;orthogonalLoop=1;jettySize=auto;html=1;" edge="1" parent="1" source="ft27JHIak2lnVU1Jxt6R-1" target="ft27JHIak2lnVU1Jxt6R-4">
          <mxGeometry relative="1" as="geometry" />
        </mxCell>
        <mxCell id="ft27JHIak2lnVU1Jxt6R-1" value="User opens policy management module&lt;div&gt;and goes&lt;/div&gt;" style="rounded=0;whiteSpace=wrap;html=1;" vertex="1" parent="1">
          <mxGeometry x="50" y="50" width="120" height="60" as="geometry" />
        </mxCell>
        <mxCell id="ft27JHIak2lnVU1Jxt6R-7" value="" style="edgeStyle=orthogonalEdgeStyle;rounded=0;orthogonalLoop=1;jettySize=auto;html=1;" edge="1" parent="1" source="ft27JHIak2lnVU1Jxt6R-4" target="ft27JHIak2lnVU1Jxt6R-6">
          <mxGeometry relative="1" as="geometry" />
        </mxCell>
        <mxCell id="ft27JHIak2lnVU1Jxt6R-4" value="Get existing policies, enterprise roles, work locations, apps, actions&amp;nbsp;&amp;nbsp;" style="rounded=0;whiteSpace=wrap;html=1;" vertex="1" parent="1">
          <mxGeometry x="250" y="50" width="120" height="60" as="geometry" />
        </mxCell>
        <mxCell id="ft27JHIak2lnVU1Jxt6R-9" value="" style="edgeStyle=orthogonalEdgeStyle;rounded=0;orthogonalLoop=1;jettySize=auto;html=1;" edge="1" parent="1" source="ft27JHIak2lnVU1Jxt6R-6" target="ft27JHIak2lnVU1Jxt6R-8">
          <mxGeometry relative="1" as="geometry" />
        </mxCell>
        <mxCell id="ft27JHIak2lnVU1Jxt6R-6" value="Create new or maintain policy on the UI using matrix or multi step view" style="whiteSpace=wrap;html=1;rounded=0;" vertex="1" parent="1">
          <mxGeometry x="450" y="50" width="120" height="60" as="geometry" />
        </mxCell>
        <mxCell id="ft27JHIak2lnVU1Jxt6R-13" value="" style="edgeStyle=orthogonalEdgeStyle;rounded=0;orthogonalLoop=1;jettySize=auto;html=1;" edge="1" parent="1" source="ft27JHIak2lnVU1Jxt6R-8" target="ft27JHIak2lnVU1Jxt6R-12">
          <mxGeometry relative="1" as="geometry" />
        </mxCell>
        <mxCell id="ft27JHIak2lnVU1Jxt6R-8" value="API request to save change&lt;div&gt;(Cache and queue if offline)&lt;/div&gt;" style="whiteSpace=wrap;html=1;rounded=0;" vertex="1" parent="1">
          <mxGeometry x="650" y="50" width="120" height="60" as="geometry" />
        </mxCell>
        <mxCell id="ft27JHIak2lnVU1Jxt6R-15" value="" style="edgeStyle=orthogonalEdgeStyle;rounded=0;orthogonalLoop=1;jettySize=auto;html=1;" edge="1" parent="1" source="ft27JHIak2lnVU1Jxt6R-12" target="ft27JHIak2lnVU1Jxt6R-14">
          <mxGeometry relative="1" as="geometry" />
        </mxCell>
        <mxCell id="ft27JHIak2lnVU1Jxt6R-12" value="Backend validates, persists and sends policy to policy engine to distribute to cell towers" style="rounded=0;whiteSpace=wrap;html=1;" vertex="1" parent="1">
          <mxGeometry x="650" y="190" width="120" height="80" as="geometry" />
        </mxCell>
        <mxCell id="ft27JHIak2lnVU1Jxt6R-14" value="Succes/failure displayed on screen&amp;nbsp;" style="whiteSpace=wrap;html=1;rounded=0;" vertex="1" parent="1">
          <mxGeometry x="450" y="200" width="120" height="60" as="geometry" />
        </mxCell>
        <mxCell id="ft27JHIak2lnVU1Jxt6R-16" value="&lt;font style=&quot;font-size: 14px;&quot;&gt;Policy Management&lt;/font&gt;" style="text;strokeColor=none;fillColor=none;html=1;fontSize=24;fontStyle=1;verticalAlign=middle;align=center;" vertex="1" parent="1">
          <mxGeometry x="325" y="270" width="100" height="40" as="geometry" />
        </mxCell>
        <mxCell id="ft27JHIak2lnVU1Jxt6R-19" value="" style="edgeStyle=orthogonalEdgeStyle;rounded=0;orthogonalLoop=1;jettySize=auto;html=1;endArrow=none;" edge="1" parent="1" source="ft27JHIak2lnVU1Jxt6R-17" target="ft27JHIak2lnVU1Jxt6R-18">
          <mxGeometry relative="1" as="geometry">
            <Array as="points">
              <mxPoint x="140" y="500" />
            </Array>
          </mxGeometry>
        </mxCell>
        <mxCell id="ft27JHIak2lnVU1Jxt6R-35" value="" style="edgeStyle=orthogonalEdgeStyle;rounded=0;orthogonalLoop=1;jettySize=auto;html=1;endArrow=none;" edge="1" parent="1" source="ft27JHIak2lnVU1Jxt6R-17" target="ft27JHIak2lnVU1Jxt6R-34">
          <mxGeometry relative="1" as="geometry" />
        </mxCell>
        <mxCell id="ft27JHIak2lnVU1Jxt6R-17" value="Enterprise" style="whiteSpace=wrap;html=1;align=center;" vertex="1" parent="1">
          <mxGeometry x="240" y="480" width="100" height="40" as="geometry" />
        </mxCell>
        <mxCell id="ft27JHIak2lnVU1Jxt6R-27" value="" style="edgeStyle=orthogonalEdgeStyle;rounded=0;orthogonalLoop=1;jettySize=auto;html=1;endArrow=none;" edge="1" parent="1" source="ft27JHIak2lnVU1Jxt6R-18" target="ft27JHIak2lnVU1Jxt6R-26">
          <mxGeometry relative="1" as="geometry" />
        </mxCell>
        <mxCell id="ft27JHIak2lnVU1Jxt6R-29" value="" style="edgeStyle=orthogonalEdgeStyle;rounded=0;orthogonalLoop=1;jettySize=auto;html=1;exitX=1;exitY=0.5;exitDx=0;exitDy=0;endArrow=none;" edge="1" parent="1" source="ft27JHIak2lnVU1Jxt6R-17" target="ft27JHIak2lnVU1Jxt6R-28">
          <mxGeometry relative="1" as="geometry" />
        </mxCell>
        <mxCell id="ft27JHIak2lnVU1Jxt6R-18" value="subscribes" style="shape=rhombus;perimeter=rhombusPerimeter;whiteSpace=wrap;html=1;align=center;" vertex="1" parent="1">
          <mxGeometry x="50" y="470" width="120" height="60" as="geometry" />
        </mxCell>
        <mxCell id="ft27JHIak2lnVU1Jxt6R-26" value="Subscription" style="whiteSpace=wrap;html=1;" vertex="1" parent="1">
          <mxGeometry x="50" y="630" width="120" height="60" as="geometry" />
        </mxCell>
        <mxCell id="ft27JHIak2lnVU1Jxt6R-31" value="" style="edgeStyle=orthogonalEdgeStyle;rounded=0;orthogonalLoop=1;jettySize=auto;html=1;endArrow=none;" edge="1" parent="1" source="ft27JHIak2lnVU1Jxt6R-28" target="ft27JHIak2lnVU1Jxt6R-30">
          <mxGeometry relative="1" as="geometry" />
        </mxCell>
        <mxCell id="ft27JHIak2lnVU1Jxt6R-28" value="has" style="shape=rhombus;perimeter=rhombusPerimeter;whiteSpace=wrap;html=1;align=center;" vertex="1" parent="1">
          <mxGeometry x="390" y="470" width="120" height="60" as="geometry" />
        </mxCell>
        <mxCell id="ft27JHIak2lnVU1Jxt6R-39" value="" style="edgeStyle=orthogonalEdgeStyle;rounded=0;orthogonalLoop=1;jettySize=auto;html=1;" edge="1" parent="1" source="ft27JHIak2lnVU1Jxt6R-30" target="ft27JHIak2lnVU1Jxt6R-38">
          <mxGeometry relative="1" as="geometry" />
        </mxCell>
        <mxCell id="ft27JHIak2lnVU1Jxt6R-30" value="EnterpriseUser" style="shape=label;whiteSpace=wrap;html=1;align=center;" vertex="1" parent="1">
          <mxGeometry x="570" y="470" width="120" height="60" as="geometry" />
        </mxCell>
        <mxCell id="ft27JHIak2lnVU1Jxt6R-34" value="Has" style="whiteSpace=wrap;html=1;align=center;shape=rhombus;perimeter=rhombusPerimeter;" vertex="1" parent="1">
          <mxGeometry x="230" y="600" width="120" height="60" as="geometry" />
        </mxCell>
        <mxCell id="ft27JHIak2lnVU1Jxt6R-36" value="Policy" style="whiteSpace=wrap;html=1;" vertex="1" parent="1">
          <mxGeometry x="440" y="600" width="120" height="60" as="geometry" />
        </mxCell>
        <mxCell id="ft27JHIak2lnVU1Jxt6R-38" value="has" style="whiteSpace=wrap;html=1;shape=rhombus;perimeter=rhombusPerimeter;" vertex="1" parent="1">
          <mxGeometry x="770" y="470" width="120" height="60" as="geometry" />
        </mxCell>
        <mxCell id="ft27JHIak2lnVU1Jxt6R-43" value="" style="endArrow=none;html=1;rounded=0;exitX=1;exitY=0.5;exitDx=0;exitDy=0;entryX=0;entryY=0.5;entryDx=0;entryDy=0;" edge="1" parent="1" source="ft27JHIak2lnVU1Jxt6R-34" target="ft27JHIak2lnVU1Jxt6R-36">
          <mxGeometry relative="1" as="geometry">
            <mxPoint x="390" y="630" as="sourcePoint" />
            <mxPoint x="440" y="680" as="targetPoint" />
          </mxGeometry>
        </mxCell>
        <mxCell id="ft27JHIak2lnVU1Jxt6R-44" value="Role" style="whiteSpace=wrap;html=1;align=center;" vertex="1" parent="1">
          <mxGeometry x="780" y="580" width="100" height="40" as="geometry" />
        </mxCell>
        <mxCell id="ft27JHIak2lnVU1Jxt6R-47" value="" style="endArrow=none;html=1;rounded=0;entryX=0.5;entryY=1;entryDx=0;entryDy=0;exitX=0.5;exitY=0;exitDx=0;exitDy=0;" edge="1" parent="1" source="ft27JHIak2lnVU1Jxt6R-44" target="ft27JHIak2lnVU1Jxt6R-38">
          <mxGeometry relative="1" as="geometry">
            <mxPoint x="740" y="540" as="sourcePoint" />
            <mxPoint x="900" y="540" as="targetPoint" />
          </mxGeometry>
        </mxCell>
        <mxCell id="ft27JHIak2lnVU1Jxt6R-48" value="Owns" style="shape=rhombus;perimeter=rhombusPerimeter;whiteSpace=wrap;html=1;align=center;" vertex="1" parent="1">
          <mxGeometry x="570" y="370" width="120" height="60" as="geometry" />
        </mxCell>
        <mxCell id="ft27JHIak2lnVU1Jxt6R-49" value="" style="endArrow=none;html=1;rounded=0;entryX=0.5;entryY=0;entryDx=0;entryDy=0;exitX=0.5;exitY=1;exitDx=0;exitDy=0;" edge="1" parent="1" source="ft27JHIak2lnVU1Jxt6R-48" target="ft27JHIak2lnVU1Jxt6R-30">
          <mxGeometry relative="1" as="geometry">
            <mxPoint x="390" y="520" as="sourcePoint" />
            <mxPoint x="550" y="520" as="targetPoint" />
          </mxGeometry>
        </mxCell>
        <mxCell id="ft27JHIak2lnVU1Jxt6R-50" value="Device" style="whiteSpace=wrap;html=1;align=center;" vertex="1" parent="1">
          <mxGeometry x="400" y="380" width="100" height="40" as="geometry" />
        </mxCell>
        <mxCell id="ft27JHIak2lnVU1Jxt6R-51" value="" style="endArrow=none;html=1;rounded=0;entryX=0;entryY=0.5;entryDx=0;entryDy=0;exitX=1;exitY=0.5;exitDx=0;exitDy=0;" edge="1" parent="1" source="ft27JHIak2lnVU1Jxt6R-50" target="ft27JHIak2lnVU1Jxt6R-48">
          <mxGeometry relative="1" as="geometry">
            <mxPoint x="390" y="520" as="sourcePoint" />
            <mxPoint x="550" y="520" as="targetPoint" />
          </mxGeometry>
        </mxCell>
        <mxCell id="ft27JHIak2lnVU1Jxt6R-52" value="" style="endArrow=none;html=1;rounded=0;entryX=0.25;entryY=1;entryDx=0;entryDy=0;exitX=0.5;exitY=0;exitDx=0;exitDy=0;" edge="1" parent="1" source="ft27JHIak2lnVU1Jxt6R-53" target="ft27JHIak2lnVU1Jxt6R-36">
          <mxGeometry relative="1" as="geometry">
            <mxPoint x="400" y="700" as="sourcePoint" />
            <mxPoint x="510" y="700" as="targetPoint" />
          </mxGeometry>
        </mxCell>
        <mxCell id="ft27JHIak2lnVU1Jxt6R-53" value="allowed_actions" style="ellipse;whiteSpace=wrap;html=1;align=center;" vertex="1" parent="1">
          <mxGeometry x="340" y="710" width="100" height="40" as="geometry" />
        </mxCell>
        <mxCell id="ft27JHIak2lnVU1Jxt6R-55" value="denied_actions" style="ellipse;whiteSpace=wrap;html=1;align=center;" vertex="1" parent="1">
          <mxGeometry x="460" y="710" width="100" height="40" as="geometry" />
        </mxCell>
        <mxCell id="ft27JHIak2lnVU1Jxt6R-56" value="" style="endArrow=none;html=1;rounded=0;entryX=0.5;entryY=1;entryDx=0;entryDy=0;exitX=0.5;exitY=0;exitDx=0;exitDy=0;" edge="1" parent="1" source="ft27JHIak2lnVU1Jxt6R-55" target="ft27JHIak2lnVU1Jxt6R-36">
          <mxGeometry relative="1" as="geometry">
            <mxPoint x="420" y="520" as="sourcePoint" />
            <mxPoint x="580" y="520" as="targetPoint" />
          </mxGeometry>
        </mxCell>
      </root>
    </mxGraphModel>
  </diagram>
</mxfile>
